<svg xmlns="http://www.w3.org/2000/svg" width="800" height="600"><rect width="800" height="600" fill="#312e58"/><circle cx="90" cy="90" r="18" fill="#fff" opacity=".5"/><circle cx="720" cy="500" r="12" fill="#fff" opacity=".5"/><circle cx="300" cy="480" r="10" fill="#fff" opacity=".5"/><g fill="#ffd740"><path d="m150 105 13 28 31 4-23 21 7 31-28-16-28 16 7-31-23-21 31-4z"/><path d="m410 285 13 28 31 4-23 21 7 31-28-16-28 16 7-31-23-21 31-4z"/><path d="m650 145 13 28 31 4-23 21 7 31-28-16-28 16 7-31-23-21 31-4z"/></g></svg>
